<svg width="35" height="35" viewBox="0 0 35 35" fill="none" xmlns="http://www.w3.org/2000/svg">
<path fill-rule="evenodd" clip-rule="evenodd" d="M2.18749 17.4999C2.18749 17.2098 2.30273 16.9316 2.50784 16.7265C2.71296 16.5214 2.99116 16.4062 3.28124 16.4062H29.0784L22.1944 9.52429C21.989 9.31891 21.8736 9.04036 21.8736 8.74992C21.8736 8.45947 21.989 8.18092 22.1944 7.97554C22.3997 7.77016 22.6783 7.65479 22.9687 7.65479C23.2592 7.65479 23.5377 7.77016 23.7431 7.97554L32.4931 16.7255C32.595 16.8271 32.6758 16.9478 32.7309 17.0807C32.7861 17.2136 32.8144 17.3561 32.8144 17.4999C32.8144 17.6438 32.7861 17.7862 32.7309 17.9191C32.6758 18.052 32.595 18.1727 32.4931 18.2743L23.7431 27.0243C23.5377 27.2297 23.2592 27.345 22.9687 27.345C22.6783 27.345 22.3997 27.2297 22.1944 27.0243C21.989 26.8189 21.8736 26.5404 21.8736 26.2499C21.8736 25.9595 21.989 25.6809 22.1944 25.4755L29.0784 18.5937H3.28124C2.99116 18.5937 2.71296 18.4784 2.50784 18.2733C2.30273 18.0682 2.18749 17.79 2.18749 17.4999Z" fill="#A649FF"/>
</svg>
