<svg width="35" height="36" viewBox="0 0 35 36" fill="none" xmlns="http://www.w3.org/2000/svg">
<path fill-rule="evenodd" clip-rule="evenodd" d="M2.1875 17.9999C2.1875 17.7098 2.30273 17.4316 2.50785 17.2265C2.71297 17.0214 2.99117 16.9062 3.28125 16.9062H29.0784L22.1944 10.0243C21.989 9.81891 21.8736 9.54036 21.8736 9.24992C21.8736 8.95947 21.989 8.68092 22.1944 8.47554C22.3998 8.27016 22.6783 8.15479 22.9688 8.15479C23.2592 8.15479 23.5377 8.27016 23.7431 8.47554L32.4931 17.2255C32.595 17.3271 32.6758 17.4478 32.7309 17.5807C32.7861 17.7136 32.8145 17.8561 32.8145 17.9999C32.8145 18.1438 32.7861 18.2862 32.7309 18.4191C32.6758 18.552 32.595 18.6727 32.4931 18.7743L23.7431 27.5243C23.5377 27.7297 23.2592 27.845 22.9688 27.845C22.6783 27.845 22.3998 27.7297 22.1944 27.5243C21.989 27.3189 21.8736 27.0404 21.8736 26.7499C21.8736 26.4595 21.989 26.1809 22.1944 25.9755L29.0784 19.0937H3.28125C2.99117 19.0937 2.71297 18.9784 2.50785 18.7733C2.30273 18.5682 2.1875 18.29 2.1875 17.9999Z" fill="#FDF7FF"/>
</svg>
